<svg xmlns="http://www.w3.org/2000/svg" width="19" height="23" viewBox="0 0 19 23">
    <g fill="none" fill-rule="evenodd">
        <path d="M-3 0h24v24H-3z"/>
        <g fill-rule="nonzero">
            <path fill="#000" d="M8.562 12.292h1.375v5.536H8.562z"/>
            <path fill="#4B5A76" d="M8.562 12.292h1.375v5.536H8.562z"/>
            <path fill="#4B5A76" d="M15.991 12.999H2.509V5.674h1.375v5.95h10.732v-5.95h1.375z"/>
            <path fill="#000" d="M9.25 22.948a2.816 2.816 0 0 1 0-5.632 2.816 2.816 0 0 1 0 5.632zm0-4.257a1.44 1.44 0 0 0-1.435 1.441 1.44 1.44 0 0 0 1.435 1.441 1.44 1.44 0 0 0 1.435-1.441c0-.795-.643-1.441-1.435-1.441z"/>
            <path fill="#4B5A76" d="M9.25 22.948a2.816 2.816 0 0 1 0-5.632 2.816 2.816 0 0 1 0 5.632zm0-4.257a1.44 1.44 0 0 0-1.435 1.441 1.44 1.44 0 0 0 1.435 1.441 1.44 1.44 0 0 0 1.435-1.441c0-.795-.643-1.441-1.435-1.441zM3.216 6.58a2.816 2.816 0 0 1 0-5.632 2.817 2.817 0 0 1 0 5.632zm0-4.257a1.44 1.44 0 0 0-1.435 1.441 1.44 1.44 0 0 0 1.435 1.441 1.44 1.44 0 0 0 1.435-1.441 1.438 1.438 0 0 0-1.435-1.441zM15.284 6.58a2.816 2.816 0 0 1 0-5.632 2.817 2.817 0 0 1 0 5.632zm0-4.257a1.44 1.44 0 0 0-1.435 1.441 1.44 1.44 0 0 0 1.435 1.441 1.44 1.44 0 0 0 1.435-1.441 1.44 1.44 0 0 0-1.435-1.441z"/>
        </g>
    </g>
</svg>
