<svg xmlns="http://www.w3.org/2000/svg" width="14" height="22" viewBox="0 0 14 22">
    <g fill="none" fill-rule="evenodd" transform="translate(-5 -1)">
        <path d="M0 0h24v24H0z"/>
        <path fill="#4B5A76" fill-rule="nonzero" d="M15.409 1.773H8.591A2.845 2.845 0 0 0 5.75 4.614v14.773a2.845 2.845 0 0 0 2.841 2.841h6.818a2.845 2.845 0 0 0 2.841-2.841V4.614a2.844 2.844 0 0 0-2.841-2.841zm1.705 17.613c0 .94-.765 1.705-1.705 1.705H8.591c-.94 0-1.705-.765-1.705-1.705V4.614c0-.94.765-1.705 1.705-1.705h6.818c.94 0 1.705.765 1.705 1.705v14.772z"/>
        <circle cx="12" cy="19.386" r="1.136" fill="#4B5A76" fill-rule="nonzero"/>
        <path fill="#4B5A76" fill-rule="nonzero" d="M13.136 3.477h-2.273a.568.568 0 1 0 0 1.136h2.273a.568.568 0 1 0 0-1.136z"/>
    </g>
</svg>
