<svg xmlns="http://www.w3.org/2000/svg" width="24" height="24" viewBox="0 0 24 24">
    <path fill="#FFF" fill-rule="nonzero" d="M12 0C5.36 0 0 5.36 0 12s5.36 12 12 12 12-5.36 12-12S18.64 0 12 0zm0 5.2c1.84 0 3.36 1.493 3.36 3.307 0 1.84-1.493 3.306-3.36 3.306-1.867 0-3.36-1.493-3.36-3.306C8.64 6.693 10.16 5.2 12 5.2zm6.107 12.933c-.214.32-.587.534-.987.534H6.907c-.4 0-.774-.187-.987-.534a1.19 1.19 0 0 1-.107-1.12c1.014-2.533 3.467-4.16 6.214-4.16 2.746 0 5.2 1.627 6.213 4.16.133.374.08.8-.133 1.12z"/>
</svg>
