<svg xmlns="http://www.w3.org/2000/svg" width="14" height="17" viewBox="0 0 14 17">
    <g fill="none" fill-rule="evenodd">
        <path d="M-5-4h24v24H-5z"/>
        <path fill="#F87979" fill-rule="nonzero" d="M13.83 2.768h-3.217v-.783A1.8 1.8 0 0 0 8.806.195H5.194a1.8 1.8 0 0 0-1.807 1.79v.783H.17V4.11h1.299v10.905a1.8 1.8 0 0 0 1.806 1.79h7.452a1.8 1.8 0 0 0 1.806-1.79V4.11h1.299V2.768zm-9.088-.783a.45.45 0 0 1 .452-.447h3.612c.25 0 .452.2.452.447v.783H4.742v-.783zm6.181 12.712c0 .232-.19.42-.424.42H3.501a.423.423 0 0 1-.424-.42V4.455h7.846v10.242z"/>
    </g>
</svg>
