<svg xmlns="http://www.w3.org/2000/svg" viewBox="0 0 2344.52 400"><defs><style>.cls-1{fill:#fff;fill-rule:evenodd;}</style></defs><title>Logo_Tek_Renk_Beyaz</title><g id="Layer_2" data-name="Layer 2"><g id="Logo_Tek_Renk" data-name="Logo Tek Renk"><path class="cls-1" d="M2342.29,393.32a8.27,8.27,0,0,1-6.12,2.23h-36.72a7.7,7.7,0,0,1-8.35-8.34V217q0-27.81-16.13-45.06t-42.84-17.25q-23.93,0-40.33,14.19T2172.61,207V387.2a7.7,7.7,0,0,1-8.34,8.34h-36.72a7.7,7.7,0,0,1-8.34-8.34V120.72a7.7,7.7,0,0,1,8.34-8.34h36.72a7.7,7.7,0,0,1,8.34,8.34V136.3a2.23,2.23,0,0,0,1.11,2.23,1.1,1.1,0,0,0,1.67-.56q23.37-29.48,70.1-29.49,45.61,0,72.32,26.43t26.7,71.49V387.2A8.28,8.28,0,0,1,2342.29,393.32ZM2054.67,273.71h-175.8a2.46,2.46,0,0,0-2.78,2.78q1.11,21.15,3.89,30,6.12,22.26,24.48,35t45.62,12.8q45.06-.55,64.53-35,2.78-5,6.12-5a8.15,8.15,0,0,1,5,1.67l22.81,13.91q4.45,2.79,4.45,7.23l-1.11,4.45a108.61,108.61,0,0,1-42.56,42.84Q1981.79,400,1945.08,400q-39.51,0-66.76-17.52t-41.17-50.35q-13.91-33.93-13.91-79.55,0-40.6,6.12-61.75,10-38.39,40.06-60.64t72.88-22.25q52.85,0,80.67,27.54t36.16,79.83q2.78,20.59,3.89,50.07Q2063,273.71,2054.67,273.71Zm-49.51-71.77q-5.57-21.7-22-34.77t-40.89-13.07q-24.49,0-39.78,11.68t-20.86,32.27q-3.9,12.24-5,31.15a2.45,2.45,0,0,0,2.78,2.78h126.29a2.46,2.46,0,0,0,2.78-2.78Q2007.38,210.85,2005.16,201.95ZM1799.87,385.54a13.14,13.14,0,0,1,1.67,5.56q0,4.46-6.68,4.45h-39.5a12.24,12.24,0,0,1-10.57-5.56l-62.86-92.35a1.79,1.79,0,0,0-1.67-1.11,3.2,3.2,0,0,0-2.23,1.11L1615.17,390a12.25,12.25,0,0,1-10.57,5.56h-41.72q-6.68,0-6.68-4.45a13.14,13.14,0,0,1,1.67-5.56l89.57-129.62a2.79,2.79,0,0,0,0-3.34l-89.57-130.18a13.11,13.11,0,0,1-1.67-5.56q0-4.45,6.68-4.45h38.94a12.27,12.27,0,0,1,10.57,5.56l62.86,92.35a3.17,3.17,0,0,0,2.23,1.11,1.78,1.78,0,0,0,1.67-1.11L1742,117.94a12.26,12.26,0,0,1,10.57-5.56h42.28q6.68,0,6.68,4.45a13.11,13.11,0,0,1-1.67,5.56L1710.3,252.57a5.11,5.11,0,0,0,0,3.34ZM1524.49,273.71h-175.8a2.46,2.46,0,0,0-2.78,2.78q1.11,21.15,3.89,30,6.12,22.26,24.48,35t45.62,12.8q45.06-.55,64.53-35,2.78-5,6.12-5a8.15,8.15,0,0,1,5,1.67l22.81,13.91q4.45,2.79,4.45,7.23l-1.11,4.45a108.61,108.61,0,0,1-42.56,42.84Q1451.61,400,1414.89,400q-39.51,0-66.76-17.52T1307,332.13q-13.91-33.93-13.91-79.55,0-40.6,6.12-61.75,10-38.39,40.06-60.64t72.88-22.25q52.85,0,80.67,27.54t36.16,79.83q2.78,20.59,3.89,50.07Q1532.83,273.71,1524.49,273.71ZM1475,201.95q-5.57-21.7-22-34.77t-40.89-13.07q-24.49,0-39.78,11.68t-20.86,32.27q-3.9,12.24-5,31.15a2.45,2.45,0,0,0,2.78,2.78h126.29a2.46,2.46,0,0,0,2.78-2.78Q1477.19,210.85,1475,201.95Zm-230.32-45.62h-56.75a2.46,2.46,0,0,0-2.78,2.78v145.2q0,23.93,10.29,33.94t33.1,10h13.35a7.7,7.7,0,0,1,8.34,8.34v28.93q0,7.8-8.34,8.9l-22.81.56q-42.85,0-64-15t-21.14-56.19V159.11a2.46,2.46,0,0,0-2.78-2.78h-30.6a7.7,7.7,0,0,1-8.34-8.34V120.72a7.7,7.7,0,0,1,8.34-8.34h30.6a2.46,2.46,0,0,0,2.78-2.78V47.29a7.7,7.7,0,0,1,8.34-8.34h34.49a7.7,7.7,0,0,1,8.34,8.34V109.6a2.45,2.45,0,0,0,2.78,2.78h56.75a7.7,7.7,0,0,1,8.34,8.34V148a7.7,7.7,0,0,1-8.34,8.34ZM1016,70.1q-16.14,0-26.43-9.74T979.29,35q0-15.57,10.29-25.31T1016,0q16.13,0,26.15,9.74t10,25.31q0,15.58-10,25.31T1016,70.1ZM880,380.25Q853.56,400,813.51,400A83.8,83.8,0,0,1,749,371.07a1.83,1.83,0,0,0-2.23-.56,2.24,2.24,0,0,0-1.11,2.23V387.2a7.7,7.7,0,0,1-8.34,8.34H700.57a7.7,7.7,0,0,1-8.34-8.34V14.46a8.27,8.27,0,0,1,2.23-6.12,8.28,8.28,0,0,1,6.12-2.23h36.72a8.31,8.31,0,0,1,6.12,2.23,8.31,8.31,0,0,1,2.23,6.12V135.19c0,1.11.37,1.76,1.11,1.95a2.29,2.29,0,0,0,2.23-.83,81.76,81.76,0,0,1,28.65-21.14,88.05,88.05,0,0,1,35.88-7.23q41.16,0,68.15,20.58t38.66,57.3q8.34,26.7,8.34,67.32,0,43.39-10,71.21Q906.41,360.51,880,380.25ZM857.46,180.81q-17.25-26.7-49.51-26.7-31.16,0-47.29,28.37-14.47,25.6-14.46,71.21t13.35,70.1q16.69,30,48.4,30,37.27,0,53.41-30.6,13.9-26.14,13.91-69Q875.26,208.63,857.46,180.81Zm140.19-68.43h36.72a7.7,7.7,0,0,1,8.34,8.34V387.2a7.7,7.7,0,0,1-8.34,8.34H997.65a7.7,7.7,0,0,1-8.34-8.34V120.72a7.7,7.7,0,0,1,8.34-8.34Z"/><path class="cls-1" d="M478.16,306.33l-71.22,71.22a57.55,57.55,0,0,1-81.39,0L0,52,33.91,18.08a28.78,28.78,0,0,1,40.69,0L200.08,143.55,257.73,85.9a153.47,153.47,0,0,1,217,0l3.39,3.39A153.47,153.47,0,0,1,478.16,306.33Zm-56-164.47a79.13,79.13,0,0,0-111.91,0l-56,56,91.56,91.56a28.78,28.78,0,0,0,40.69,0l35.61-35.61A79.13,79.13,0,0,0,422.21,141.86ZM132.42,211.21l54.26,54.26L54.26,397.89,20.35,364a28.78,28.78,0,0,1,0-40.69Z"/></g></g></svg>