<?xml version="1.0" encoding="utf-8"?>
<!-- Generator: Adobe Illustrator 24.1.1, SVG Export Plug-In . SVG Version: 6.00 Build 0)  -->
<svg version="1.1" id="Layer_1" xmlns="http://www.w3.org/2000/svg" xmlns:xlink="http://www.w3.org/1999/xlink" x="0px" y="0px"
	 viewBox="0 0 400 134" style="enable-background:new 0 0 400 134;" xml:space="preserve">
<style type="text/css">
	.st0{fill:url(#SVGID_1_);}
	.st1{fill:url(#SVGID_2_);}
	.st2{fill:url(#SVGID_3_);}
	.st3{fill:url(#SVGID_4_);}
	.st4{fill:url(#SVGID_5_);}
	.st5{fill:url(#SVGID_6_);}
</style>
<g>
	
		<linearGradient id="SVGID_1_" gradientUnits="userSpaceOnUse" x1="53.0879" y1="62.8386" x2="329.938" y2="136.2012" gradientTransform="matrix(1 0 0 -1 0 135)">
		<stop  offset="0" style="stop-color:#E04A57"/>
		<stop  offset="1" style="stop-color:#90288F"/>
	</linearGradient>
	<path class="st0" d="M71.4,96.3c-0.1,2.8-0.6,5.9-2.7,7.9c-2.9,2.8-7.1,1.9-10.8,1.9c0-18.2,0.1-36.4,0.1-54.6
		c0-5.7,1.3-11.5,5.4-15.8c4.2-4.3,10.3-6.4,16.1-7.4c2.5-0.4,5-0.6,7.5-0.4c3.5,0.3,7,1.1,10.3,2.8c6.2,3.2,10.1,8.9,11.4,15.7
		c2.4,11.8,2,23.2-6.4,32.9c-5.8,6.7-15.5,8.6-23.5,4.8c-2.8-1.3-5.4-3.7-7.1-6.1C71.8,78.1,71.4,96.2,71.4,96.3z M96,57.1
		c0-5.3-0.7-8.4-2.5-11.7c-4-7.2-14.1-7.8-18.9-1.2C70.3,50,70,63,73.9,69c4.6,7,14.1,7.1,18.9,0.2C95.4,65.5,96.1,61.4,96,57.1z"/>
	
		<linearGradient id="SVGID_2_" gradientUnits="userSpaceOnUse" x1="54.6293" y1="57.0218" x2="331.4794" y2="130.3844" gradientTransform="matrix(1 0 0 -1 0 135)">
		<stop  offset="0" style="stop-color:#E04A57"/>
		<stop  offset="1" style="stop-color:#90288F"/>
	</linearGradient>
	<path class="st1" d="M137.7,27.8c2.7,0.1,5.3,0.5,7.9,1.2c8.5,2.3,12.3,6.9,12.3,15.7c0,6.9,0.1,13.8,0,20.6
		c-0.1,5.1-1.5,10.2-5.1,14c-1.7,1.8-3.8,3.1-6.1,4.1c-7.3,3.1-17.2,3.9-24.8,1.1c-12.2-4.5-12.5-19.5-7.5-26
		c4-5.3,10.2-6.6,16.4-7.7c3.2-0.6,6.5-1.1,9.6-2c2.2-0.7,4.5-1.8,4.4-4.8c-0.2-5.4-7.3-5.5-11.2-5.2c-2.7,0.2-5.1,1.3-6.8,3.5
		c-0.7,0.9-1.6,0.7-2.5,0.7c-2.8,0-5.7-0.2-8.4,0.1c-3.2,0.3-3-1.2-2.2-3.3c2.5-6.8,7.7-10.2,14.7-11.3
		C131.5,27.9,134.6,27.7,137.7,27.8z M145.3,61.2c0.1-4.5,0.1-4.4-4.2-3.1c-2.3,0.7-4.8,1.2-7.2,1.7c-2.1,0.4-4.2,0.9-6,2.1
		c-2.5,1.6-3.9,4.9-3,7.9c0.8,3.1,2.8,5,6.2,5.2C140.1,75.7,145,70.9,145.3,61.2z"/>
	
		<linearGradient id="SVGID_3_" gradientUnits="userSpaceOnUse" x1="59.8647" y1="37.2649" x2="336.7147" y2="110.6276" gradientTransform="matrix(1 0 0 -1 0 135)">
		<stop  offset="0" style="stop-color:#E04A57"/>
		<stop  offset="1" style="stop-color:#90288F"/>
	</linearGradient>
	<path class="st2" d="M174.7,96.3c-0.1,2.8-0.6,5.9-2.7,7.9c-2.9,2.8-7.1,1.9-10.8,1.9c0-18.2,0.1-36.4,0.1-54.6
		c0-5.7,1.3-11.5,5.4-15.8c4.2-4.3,10.3-6.4,16.1-7.4c2.5-0.4,5-0.6,7.5-0.4c3.5,0.3,7,1.1,10.3,2.8c6.2,3.2,10.1,8.9,11.4,15.7
		c2.4,11.8,2,23.2-6.4,32.9c-5.8,6.7-15.5,8.6-23.5,4.8c-2.8-1.3-5.4-3.7-7.1-6.1C175.1,78.1,174.7,96.2,174.7,96.3z M199.3,57.1
		c0-5.3-0.7-8.4-2.5-11.7c-4-7.2-14.1-7.8-18.9-1.2c-4.2,5.8-4.5,18.8-0.6,24.8c4.6,7,14.1,7.1,18.9,0.2
		C198.7,65.5,199.4,61.4,199.3,57.1z"/>
	
		<linearGradient id="SVGID_4_" gradientUnits="userSpaceOnUse" x1="61.4061" y1="31.4481" x2="338.2562" y2="104.8107" gradientTransform="matrix(1 0 0 -1 0 135)">
		<stop  offset="0" style="stop-color:#E04A57"/>
		<stop  offset="1" style="stop-color:#90288F"/>
	</linearGradient>
	<path class="st3" d="M241,27.8c2.7,0.1,5.3,0.5,7.9,1.2c8.5,2.3,12.3,6.9,12.3,15.7c0,6.9,0.1,13.8,0,20.6
		c-0.1,5.1-1.5,10.2-5.1,14c-1.7,1.8-3.8,3.1-6.1,4.1c-7.3,3.1-17.2,3.9-24.8,1.1c-12.2-4.5-12.5-19.5-7.5-26
		c4-5.3,10.2-6.6,16.4-7.7c3.2-0.6,6.5-1.1,9.6-2c2.2-0.7,4.5-1.8,4.4-4.8c-0.2-5.4-7.3-5.5-11.2-5.2c-2.7,0.2-5.1,1.3-6.8,3.5
		c-0.7,0.9-1.6,0.7-2.5,0.7c-2.8,0-5.7-0.2-8.4,0.1c-3.2,0.3-3-1.2-2.2-3.3c2.5-6.8,7.7-10.2,14.7-11.3
		C234.8,27.9,237.9,27.7,241,27.8z M248.6,61.2c0.1-4.5,0.1-4.4-4.2-3.1c-2.3,0.7-4.8,1.2-7.2,1.7c-2.1,0.4-4.2,0.9-6,2.1
		c-2.5,1.6-3.9,4.9-3,7.9c0.8,3.1,2.8,5,6.2,5.2C243.4,75.7,248.3,70.9,248.6,61.2z"/>
	
		<linearGradient id="SVGID_5_" gradientUnits="userSpaceOnUse" x1="66.7115" y1="11.4269" x2="343.5616" y2="84.7896" gradientTransform="matrix(1 0 0 -1 0 135)">
		<stop  offset="0" style="stop-color:#E04A57"/>
		<stop  offset="1" style="stop-color:#90288F"/>
	</linearGradient>
	<path class="st4" d="M321.9,27.8c2.7,0.1,5.3,0.5,7.9,1.2c8.5,2.3,12.3,6.9,12.3,15.7c0,6.9,0.1,13.8,0,20.6
		c-0.1,5.1-1.5,10.2-5.1,14c-1.7,1.8-3.8,3.1-6.1,4.1c-7.3,3.1-17.2,3.9-24.8,1.1c-12.2-4.5-12.5-19.5-7.5-26
		c4-5.3,10.2-6.6,16.4-7.7c3.2-0.6,6.5-1.1,9.6-2c2.2-0.7,4.5-1.8,4.4-4.8c-0.2-5.4-7.3-5.5-11.2-5.2c-2.7,0.2-5.1,1.3-6.8,3.5
		c-0.7,0.9-1.6,0.7-2.5,0.7c-2.8,0-5.7-0.2-8.4,0.1c-3.2,0.3-3-1.2-2.2-3.3c2.5-6.8,7.7-10.2,14.7-11.3
		C315.6,27.9,318.8,27.7,321.9,27.8z M329.5,61.2c0.1-4.5,0.1-4.4-4.2-3.1c-2.3,0.7-4.8,1.2-7.2,1.7c-2.1,0.4-4.2,0.9-6,2.1
		c-2.5,1.6-3.9,4.9-3,7.9c0.8,3.1,2.8,5,6.2,5.2C324.2,75.7,329.2,70.9,329.5,61.2z"/>
	
		<linearGradient id="SVGID_6_" gradientUnits="userSpaceOnUse" x1="64.4263" y1="20.0504" x2="341.2765" y2="93.4131" gradientTransform="matrix(1 0 0 -1 0 135)">
		<stop  offset="0" style="stop-color:#E04A57"/>
		<stop  offset="1" style="stop-color:#90288F"/>
	</linearGradient>
	<path class="st5" d="M286.7,29.5c-1.7,0.2-3.4,0.8-5.1,1.3c-3.4,1.1-6.6,2.7-9.3,5c-4.5,3.9-6.9,9.4-7.8,15.2
		c-1.5,10.6,0.3,21.4,0,32.1c0,1.7,1,2.5,2.4,2.5c2.8,0.1,5.6-0.1,8.4-0.1c2.9,0,3-2.1,3-4.4c-0.1-8.7-0.1-16,0-24.7
		c0-0.9,0.1-1.7,0.2-2.6c0.4-3.1,1.7-6,4.4-7.8c3.7-2.4,8.1-2.2,12.3-2.2l0.3-14.5c-2.6,0-5.2-0.2-7.8,0
		C287.4,29.4,287.1,29.4,286.7,29.5z"/>
</g>
</svg>
