<?xml version="1.0" encoding="utf-8"?>
<!-- Generator: Adobe Illustrator 24.1.1, SVG Export Plug-In . SVG Version: 6.00 Build 0)  -->
<svg version="1.1" id="Layer_1" xmlns="http://www.w3.org/2000/svg" xmlns:xlink="http://www.w3.org/1999/xlink" x="0px" y="0px"
	 viewBox="0 0 500 134" style="enable-background:new 0 0 500 134;" xml:space="preserve">
<style type="text/css">
	.st0{fill-rule:evenodd;clip-rule:evenodd;fill:#FFFFFF;}
	.st1{fill-rule:evenodd;clip-rule:evenodd;fill:#FFE25D;}
</style>
<g>
	<polygon class="st0" points="67,57.6 77.7,113.4 84.9,113.5 87.9,113.5 118.5,57.6 118.3,57.6 106.9,57.6 84.9,101.7 80.2,57.6 
		79.9,57.6 	"/>
	<path class="st0" d="M141.4,112.8c1.7-9.2,3.4-18,5.1-27.1c1.2-7.7-2.7-11.9-10-13.5c-7.1-1.5-13.9-1.1-20.2,1.7
		c-1.1,2.1-1.9,4.3-3,6.4c5.1-2,10.6-3.1,16.5-2.5c5.8,0.7,7.7,3.7,5.9,9.1c-14.6,0.2-25.5,3.3-29.8,11.6c-1.7,5.7,0.5,9.1,2.7,11
		c4.6,2.9,10.1,4.1,16.4,4C130.4,113.5,135.8,113.3,141.4,112.8 M134.6,91l-3.1,17.5c-5-0.1-15.6,1.1-16-6.3
		c0.4-4.7,3.1-7.9,8.1-9.6C127.1,91.7,130.9,91.2,134.6,91"/>
	<polygon class="st0" points="160.8,57.6 150.2,113.5 161.3,113.5 165.3,92.9 178,113.5 190.6,113.5 175.8,91.5 196.1,73.1 
		184.9,72.9 165.6,91 171.9,57.6 	"/>
	<polygon class="st0" points="202.8,73.1 194.9,113.5 205,113.5 212.7,73.1 	"/>
	<path class="st0" d="M226.8,68.9l-0.9,4.5h-7l-1.3,5.8h7.1l-6.6,34.4h11c2.1-11.4,4.3-22.9,6.4-34.4h8l1.3-5.8h-8.1l0.4-1.9
		c0.1-0.8,0.3-1.5,0.5-2.2c0.5-6.2,5.2-8.5,12.7-7.4c0.1-0.1,0.2-0.2,0.3-0.2c0.8-2.1,2-3.4,4.8-4.4c-11.5-2.2-21.6-0.4-27.2,7.8
		C227.4,66.3,227.1,67.2,226.8,68.9"/>
	<path class="st0" d="M254.8,63.9l-9.4,49.3l0,0v0.1l-0.1,0.3h5l19.3-0.2c12.7-0.1,23.6-4.6,24-17.8c-0.3-7.1-4.9-10.8-11.4-12.5
		v-0.2l0,0c7.2-0.3,14.5-6.3,14.2-13.3c-0.3-6.5-4.6-11-13.8-13.2C275.7,55.1,257.6,55.1,254.8,63.9 M261.8,86.4l0.1-0.5
		c10.5-0.5,19.5-0.4,19.9,9.3c-0.8,8.3-6.2,11.7-14.6,12.2l-9.3-0.2L261.8,86.4z M262.9,80.6l3.5-17.8c0.4-0.1,0.9-0.3,1.4-0.4
		c2.9-0.8,6.1-1.2,9.7-0.8h0.2c4,0.6,7.2,2.4,7.7,6.9c0,2-0.4,3.9-1,5.2c-0.6,1.5-1.5,2.7-2.7,3.7c-2.4,1.9-6,2.9-10.3,3.2H262.9z"
		/>
	<path class="st0" d="M333.1,112.8c1.7-9.2,3.4-18,5.1-27.1c1.2-7.7-2.7-11.9-10-13.5c-7.1-1.5-13.9-1.1-20.2,1.7l-3,6.4
		c5.1-2,10.6-3.1,16.5-2.5c5.8,0.7,7.7,3.7,5.9,9.1c-14.6,0.2-25.5,3.3-29.8,11.6c-1.7,5.7,0.5,9.1,2.7,11c4.6,2.9,10.1,4.1,16.4,4
		C322.1,113.5,327.6,113.3,333.1,112.8 M326.3,91l-3.1,17.5c-5-0.1-15.6,1.1-16-6.3c0.4-4.7,3.1-7.9,8.1-9.6
		C318.9,91.7,322.6,91.2,326.3,91"/>
	<path class="st0" d="M379.8,113.4c1.7-9.1,3.2-18.3,5.1-27.3c0.3-1.3,0.5-2.4,0.5-3.7c0.5-15.6-30.2-10.6-37.5-7.6l-7.1,38.6
		l10.2,0.1h0.9l6-33.8c3.7-1.5,17-3.8,16.7,4.2l-5.6,29.7h4.3L379.8,113.4z"/>
	<polygon class="st0" points="397.8,57.6 387.2,113.5 398.3,113.5 402.2,92.9 415,113.5 427.5,113.5 412.8,91.5 433,73.1 
		421.9,72.9 402.6,91 408.9,57.6 	"/>
	<path class="st1" d="M352.7,56.6l19.2-0.1c10.1-0.1,18.6-6.1,18.8-17.1c-0.3-7.1-5.5-10.9-12-12.7v-0.2l0,0
		c7.2-0.3,14.5-6.2,14.1-13.3c-0.4-7.9-9-12.8-16.2-12.8h-2.2l-4.8-0.1h-37.3C326,1,320.9,3.8,317.2,9.8c-0.5,0.9-0.7,1.4-1,2.3
		l-10,44.3L352.7,56.6L352.7,56.6z M320.7,15.4c-2.8,12.3-5.7,24.4-8.5,36.7c6.5,0.5,13.5,0.5,18.7-3.9c2.1-1.7,4.2-3.7,5.7-5.7
		l20-24.2c4.3-5.2,8.6-10.6,15.7-14C366,4.4,360.2,5.9,355,8.9c-1.8,1.1-2.9,2-4.3,3.7l-26,29.3c1.5-7.1,3.4-15.7,5.2-23.3
		c0.1-0.6,0.3-1.1,0.4-1.5c1.6-8.9,8.4-11.7,10.1-11.7C330.8,3.1,323.4,7.6,320.7,15.4"/>
</g>
</svg>
