<?xml version="1.0" encoding="utf-8"?>
<!-- Generator: Adobe Illustrator 24.1.1, SVG Export Plug-In . SVG Version: 6.00 Build 0)  -->
<svg version="1.1" id="Layer_1" xmlns="http://www.w3.org/2000/svg" xmlns:xlink="http://www.w3.org/1999/xlink" x="0px" y="0px"
	 viewBox="0 0 500 134" style="enable-background:new 0 0 500 134;" xml:space="preserve">
<style type="text/css">
	.st0{fill-rule:evenodd;clip-rule:evenodd;fill:#EC1C24;}
	.st1{fill:#FFFFFF;}
</style>
<g>
	<g>
		<path class="st0" d="M42.7,51.8l-7.6,6l-5.1,4V80l2.6-2v8.5l-2.6,2v18.3l2.6-2.1v8.5l-2.6,2.1v18.3l5.1-4l7.6-6l10.1-7.9V84.9
			c0-1.3-1-2.6-2-3.3c1.6-1.3,2-2.7,2-4.2V62.1V43.8L42.7,51.8z M49.2,98.3c0,1.6-0.6,2.3-2,3.4l-4.5,3.5l-6.5,5.1v-8.5l6.5-5.1
			l3.9-3c1.3-1.1,2.6-0.8,2.6,0.6V98.3z M49.2,71.6c0,1.6-0.6,2.3-2,3.4l-4.5,3.5l-6.5,5.1v-8.5l6.5-5.1l3.9-3
			c1.3-1.1,2.6-0.8,2.6,0.6V71.6z"/>
		<polygon class="st0" points="40.1,48.4 40.1,41.9 35,45.9 33.6,47.1 33.6,40.3 35,39.1 40.1,35 40.1,28.5 35,32.6 30,36.6 
			30,56.6 35,52.5 		"/>
		<polygon class="st0" points="16,28.5 16,35 19.2,37.7 19.2,44.8 18,43.8 18,50.3 21,52.8 24.1,55.3 24.1,48.8 22.8,47.7 
			22.8,40.5 26.1,43.2 26.1,36.6 21,32.6 		"/>
		<polygon class="st0" points="3.3,43.8 3.3,62.1 21,76.1 23.1,77.7 21,79.9 18.4,82.4 3.3,70.6 3.3,88.8 8.1,92.6 3.3,97.3 
			3.3,115.6 21,129.5 26.1,133.5 26.1,115.2 21,111.3 6.2,99.6 11,94.9 21,102.8 26.1,106.8 26.1,88.5 21.3,84.7 26.1,80 26.1,61.8 
			21,57.8 		"/>
	</g>
	<polygon class="st1" points="81.8,52.8 79.1,62.1 102.3,62.1 76.9,103.5 76.9,112.4 112.3,112.4 115.8,103.5 90.6,103.5 115.9,62 
		115.9,52.8 	"/>
	<path class="st1" d="M125,65.6c3.2,0,5.8-2.6,5.8-5.8S128.3,54,125,54c-3.2,0-5.8,2.6-5.8,5.8C119.3,63,121.8,65.6,125,65.6"/>
	<rect x="120.5" y="68.9" class="st1" width="9.3" height="43.5"/>
	<rect x="489.7" y="68.9" class="st1" width="7" height="43.5"/>
	<path class="st1" d="M138.1,112.3V69.1h7.8V74c0,0,2.6-2.9,6.4-3.9c3.8-1,7-0.1,7-0.1v8.3h-6.1c-2.5,0-7,3.4-7,6.6v27.4H138.1
		L138.1,112.3z"/>
	<path class="st1" d="M181.1,101.2c0,1.7-2.4,4.4-7.6,4.4c-5.2,0-7-3.7-7-6.1s1.9-7.9,7.5-7.9c5,0,7.1-0.1,7.1-0.1V101.2
		L181.1,101.2z M191.3,112.4V82.6c0-11.7-7.6-14.8-13.3-14.8s-11.7,1.5-11.7,1.5l-2.1,8.7c0,0,7.1-2.1,11.5-2.1
		c4.3,0,5.8,3.4,5.8,5.1v4.2c0,0-7.6-0.3-13.1,1.4c-5.6,1.7-11,5.3-11,15.1s8.6,11.6,14,11.6s9-2.9,9-2.9h1.6v2.1
		C181.8,112.4,191.3,112.4,191.3,112.4z"/>
	<path class="st1" d="M217.8,101.2c0,1.7-2.4,4.4-7.6,4.4s-7-3.7-7-6.1s1.9-7.9,7.5-7.9c5,0,7.1-0.1,7.1-0.1V101.2z M227.8,112.4
		V82.6c0-11.7-7.6-14.8-13.3-14.8s-11.7,1.5-11.7,1.5l-2.1,8.7c0,0,7.1-2.1,11.5-2.1c4.3,0,5.8,3.4,5.8,5.1v4.2
		c0,0-7.6-0.3-13.1,1.4c-5.6,1.7-11.1,5.3-11.1,15.1s8.6,11.6,14,11.6s9-2.9,9-2.9h1.6v2.1C218.6,112.4,227.8,112.4,227.8,112.4z"/>
	<path class="st1" d="M235.4,57.5h9v11.7h10.4l-2.3,6.7h-7.9v25c0,3.2,0.6,5.1,3.7,5.1h5.4v6.3h-9.6c-2.6,0-8.9-1.8-8.9-8.5V75.7
		h-4.4V69h4.7L235.4,57.5L235.4,57.5z"/>
	<path class="st1" d="M298.8,68.8c0,7.2-6.3,9.2-9.3,9.2h-12V59.8h11.3C292,59.8,298.8,61.6,298.8,68.8 M277.3,84.9h14.9
		c5.4,0,9.4,4.9,9.4,11.2s-5.6,9.4-10.9,9.4h-13.3L277.3,84.9L277.3,84.9z M306.2,66.6c0-8.5-8.8-13.5-17.9-13.5h-18.7v59.3h25.2
		c4,0,13.9-5.4,13.9-17.1S298,80.5,298,80.5S306.2,75.1,306.2,66.6"/>
	<path class="st1" d="M335.8,96.7c0,5.3-2.4,11.3-10.3,11.3s-8.1-5-8.1-8.8s2.5-9.5,11.3-9.5h7.1V96.7z M343,113V80.6
		c0-8-6.7-12.7-13.2-12.7s-13.6,3.2-13.6,3.2l-0.8,6.5c0,0,4.4-2.4,10.7-3.6c6.4-1.2,9.9,2.5,9.9,5.4v5.7h-10
		c-8.8,0-15.1,6.2-15.1,15.1c0,10.6,9.7,12.8,15.2,12.8s10.5-3.4,10.5-3.4v3.4C336.5,113,343,113,343,113z"/>
	<path class="st1" d="M443.8,96.7c0,5.3-2.4,11.3-10.3,11.3s-8.1-5-8.1-8.8s2.5-9.5,11.3-9.5h7.1V96.7z M451,113V80.6
		c0-8-6.7-12.7-13.2-12.7s-13.6,3.2-13.6,3.2l-0.8,6.5c0,0,4.4-2.4,10.7-3.6c6.4-1.2,9.9,2.5,9.9,5.4v5.7h-10
		c-8.8,0-15.1,6.2-15.1,15.1c0,10.6,9.7,12.8,15.2,12.8s10.5-3.4,10.5-3.4v3.4C444.5,113,451,113,451,113z"/>
	<path class="st1" d="M347.5,112.6h7.4V82.8c0-2.7,5.1-7,10.8-7s5.8,3.8,5.8,5.8v30.9h7.8V78.9c0-3.8-4.3-10.9-12.3-11.2
		c-7.7-0.3-12.5,5.6-12.5,5.6v-5.7l-7,1.5L347.5,112.6L347.5,112.6z"/>
	<polygon class="st1" points="384.3,53 392.5,53 392.5,85 394.3,85 408.5,66.8 419,66.8 400.5,87.3 421,112 409.7,112 394.3,89.4 
		392.5,89.4 392.5,112.4 384.3,112.4 	"/>
	<path class="st1" d="M481.5,76.6l1.6-5.2c0,0-5.7-3.1-12.4-3.1c-6.7,0-13.8,4.2-13.8,11.6s4.5,11.8,12.3,13.6
		c7.8,1.8,9.3,4.2,9.3,6.5s-2.3,6.4-8.9,6.4S458,103,458,103l-2.2,5.8c0,0,6.3,3.8,14.7,3.8c8.5,0,15.1-7.1,15.1-13.5
		s-6.9-10.8-12.8-12c-5.8-1.2-8.5-3.7-8.5-7.3c0-3.6,4.2-5.3,8.1-5.3C476.3,74.5,481.5,76.6,481.5,76.6"/>
</g>
</svg>
